<svg width="258" height="45" viewBox="0 0 258 45" fill="none" xmlns="http://www.w3.org/2000/svg">
<path d="M17.62 44.9C14.44 44.9 11.35 44.43 8.35 43.49C5.35 42.55 2.81 41.19 0.73 39.41L5.41 31.97C6.29 32.91 7.41 33.72 8.77 34.4C10.13 35.08 11.58 35.61 13.12 35.99C14.68 36.35 16.19 36.53 17.65 36.53C19.71 36.53 21.38 36.19 22.66 35.51C23.96 34.81 24.61 33.8 24.61 32.48C24.61 31.4 24.14 30.49 23.2 29.75C22.28 29.01 20.55 28.3 18.01 27.62L14.41 26.6C10.09 25.4 6.98 23.76 5.08 21.68C3.18 19.6 2.23 17.1 2.23 14.18C2.23 12.3 2.63 10.57 3.43 8.99C4.23 7.39 5.35 6.01 6.79 4.85C8.23 3.67 9.92 2.76 11.86 2.12C13.82 1.46 15.95 1.13 18.25 1.13C21.43 1.13 24.38 1.6 27.1 2.54C29.84 3.46 32.04 4.72 33.7 6.32L28.84 13.52C28.08 12.72 27.14 12.02 26.02 11.42C24.9 10.82 23.68 10.35 22.36 10.01C21.04 9.67 19.71 9.5 18.37 9.5C17.05 9.5 15.9 9.67 14.92 10.01C13.94 10.35 13.17 10.84 12.61 11.48C12.07 12.1 11.8 12.84 11.8 13.7C11.8 14.4 12 14.99 12.4 15.47C12.82 15.93 13.51 16.37 14.47 16.79C15.45 17.21 16.77 17.67 18.43 18.17L22.09 19.25C26.39 20.51 29.5 22.09 31.42 23.99C33.34 25.89 34.3 28.36 34.3 31.4C34.3 34.06 33.62 36.41 32.26 38.45C30.9 40.47 28.97 42.05 26.47 43.19C23.99 44.33 21.04 44.9 17.62 44.9ZM48.6503 44V11.09H37.4603V2H69.8603V11.09H58.6703V44H48.6503ZM75.9578 44V2H105.478V10.64H85.9178V18.44H102.328V26.42H85.9178V35.27H105.718V44H75.9578ZM114.044 44V2H123.614L139.574 28.49L135.614 28.52L150.794 2H160.334V44H150.674L150.854 14.72L152.624 15.35L140.504 36.08H133.874L121.274 15.35L122.984 14.72L123.164 44H114.044ZM173.925 44.9C172.285 44.9 170.855 44.38 169.635 43.34C168.435 42.3 167.835 40.89 167.835 39.11C167.835 37.91 168.105 36.88 168.645 36.02C169.205 35.16 169.945 34.49 170.865 34.01C171.805 33.53 172.825 33.29 173.925 33.29C175.585 33.29 177.015 33.81 178.215 34.85C179.415 35.89 180.015 37.31 180.015 39.11C180.015 40.31 179.735 41.34 179.175 42.2C178.615 43.06 177.875 43.72 176.955 44.18C176.035 44.66 175.025 44.9 173.925 44.9ZM198.786 44.9C195.886 44.9 193.286 44.23 190.986 42.89C188.686 41.53 186.876 39.64 185.556 37.22C184.236 34.78 183.576 31.94 183.576 28.7C183.576 26.4 183.956 24.27 184.716 22.31C185.476 20.35 186.536 18.64 187.896 17.18C189.276 15.7 190.906 14.55 192.786 13.73C194.666 12.91 196.726 12.5 198.966 12.5C201.306 12.5 203.416 12.96 205.296 13.88C207.176 14.8 208.816 16.17 210.216 17.99L207.966 20.24V0.799998H217.806V44H209.316V36.05L210.666 38.27C209.786 40.23 208.316 41.83 206.256 43.07C204.196 44.29 201.706 44.9 198.786 44.9ZM200.616 36.44C202.016 36.44 203.276 36.13 204.396 35.51C205.516 34.87 206.396 33.97 207.036 32.81C207.676 31.65 207.996 30.28 207.996 28.7C207.996 27.1 207.676 25.73 207.036 24.59C206.416 23.43 205.546 22.54 204.426 21.92C203.306 21.28 202.036 20.96 200.616 20.96C199.196 20.96 197.926 21.28 196.806 21.92C195.686 22.54 194.806 23.43 194.166 24.59C193.526 25.73 193.206 27.1 193.206 28.7C193.206 30.28 193.526 31.65 194.166 32.81C194.826 33.97 195.716 34.87 196.836 35.51C197.956 36.13 199.216 36.44 200.616 36.44ZM240.577 44.9C237.237 44.9 234.287 44.17 231.727 42.71C229.167 41.23 227.157 39.26 225.697 36.8C224.257 34.34 223.537 31.64 223.537 28.7C223.537 26.56 223.947 24.52 224.767 22.58C225.607 20.62 226.787 18.89 228.307 17.39C229.827 15.87 231.627 14.68 233.707 13.82C235.787 12.94 238.077 12.5 240.577 12.5C243.917 12.5 246.867 13.24 249.427 14.72C251.987 16.18 253.987 18.14 255.427 20.6C256.867 23.06 257.587 25.76 257.587 28.7C257.587 30.84 257.177 32.89 256.357 34.85C255.537 36.79 254.367 38.51 252.847 40.01C251.327 41.51 249.527 42.7 247.447 43.58C245.367 44.46 243.077 44.9 240.577 44.9ZM240.577 36.44C241.977 36.44 243.237 36.13 244.357 35.51C245.477 34.87 246.357 33.97 246.997 32.81C247.637 31.65 247.957 30.28 247.957 28.7C247.957 27.1 247.637 25.73 246.997 24.59C246.377 23.43 245.507 22.54 244.387 21.92C243.267 21.28 241.997 20.96 240.577 20.96C239.157 20.96 237.887 21.28 236.767 21.92C235.647 22.54 234.767 23.43 234.127 24.59C233.487 25.73 233.167 27.1 233.167 28.7C233.167 30.28 233.487 31.65 234.127 32.81C234.787 33.97 235.677 34.87 236.797 35.51C237.917 36.13 239.177 36.44 240.577 36.44Z" fill="#1C275A"/>
</svg>
